<svg width="24" height="21" viewBox="0 0 24 21" fill="none" xmlns="http://www.w3.org/2000/svg">
<mask id="path-1-inside-1" fill="white">
<path fill-rule="evenodd" clip-rule="evenodd" d="M9.31687 0C8.65615 0 8.03807 0.326316 7.66539 0.871896L6.21171 3H4C1.79086 3 0 4.79086 0 7V17C0 19.2091 1.79086 21 4 21H20C22.2091 21 24 19.2091 24 17V7C24 4.79086 22.2091 3 20 3H17.7784L16.3475 0.880809C15.9756 0.330069 15.3545 0 14.6899 0H9.31687Z"/>
</mask>
<path d="M7.66539 0.871896L6.42678 0.0258181L6.42678 0.0258183L7.66539 0.871896ZM6.21171 3V4.5H7.00363L7.45032 3.84608L6.21171 3ZM17.7784 3L16.5352 3.83939L16.9813 4.5H17.7784V3ZM16.3475 0.880809L15.1043 1.7202L15.1043 1.7202L16.3475 0.880809ZM8.904 1.71797C8.99717 1.58158 9.15169 1.5 9.31687 1.5V-1.5C8.16061 -1.5 7.07897 -0.928948 6.42678 0.0258181L8.904 1.71797ZM7.45032 3.84608L8.904 1.71797L6.42678 0.0258183L4.9731 2.15392L7.45032 3.84608ZM4 4.5H6.21171V1.5H4V4.5ZM1.5 7C1.5 5.61929 2.61929 4.5 4 4.5V1.5C0.962434 1.5 -1.5 3.96243 -1.5 7H1.5ZM1.5 17V7H-1.5V17H1.5ZM4 19.5C2.61929 19.5 1.5 18.3807 1.5 17H-1.5C-1.5 20.0376 0.962435 22.5 4 22.5V19.5ZM20 19.5H4V22.5H20V19.5ZM22.5 17C22.5 18.3807 21.3807 19.5 20 19.5V22.5C23.0376 22.5 25.5 20.0376 25.5 17H22.5ZM22.5 7V17H25.5V7H22.5ZM20 4.5C21.3807 4.5 22.5 5.61929 22.5 7H25.5C25.5 3.96243 23.0376 1.5 20 1.5V4.5ZM17.7784 4.5H20V1.5H17.7784V4.5ZM15.1043 1.7202L16.5352 3.83939L19.0215 2.16061L17.5906 0.0414159L15.1043 1.7202ZM14.6899 1.5C14.8561 1.5 15.0114 1.58252 15.1043 1.7202L17.5906 0.0414161C16.9399 -0.922379 15.8529 -1.5 14.6899 -1.5V1.5ZM9.31687 1.5H14.6899V-1.5H9.31687V1.5Z" fill="black" mask="url(#path-1-inside-1)"/>
<path d="M17.25 12C17.25 14.8995 14.8995 17.25 12 17.25C9.10051 17.25 6.75 14.8995 6.75 12C6.75 9.10051 9.10051 6.75 12 6.75C14.8995 6.75 17.25 9.10051 17.25 12Z" stroke="black" stroke-width="1.5"/>
</svg>
