<svg width="354" height="34" viewBox="0 0 354 34" fill="none" xmlns="http://www.w3.org/2000/svg">
<path fill-rule="evenodd" clip-rule="evenodd" d="M94.1392 11.686L71.1281 11.5337L81.1071 19.2101L94.1392 11.686Z" stroke="black" stroke-width="1.5" stroke-linecap="round" stroke-linejoin="round"/>
<path fill-rule="evenodd" clip-rule="evenodd" d="M94.3205 11.9999L82.9468 32.0043L81.2884 19.524L94.3205 11.9999Z" stroke="black" stroke-width="1.5" stroke-linecap="round" stroke-linejoin="round"/>
<path fill-rule="evenodd" clip-rule="evenodd" d="M11.8992 31L10.3188 29.5668C4.70572 24.4714 1 21.109 1 16.9946C1 13.6322 3.63215 11 6.99455 11C8.89101 11 10.7112 11.8828 11.8992 13.2725C13.0872 11.8828 14.9074 11 16.8038 11C20.1662 11 22.7984 13.6322 22.7984 16.9946C22.7984 21.109 19.0926 24.4714 13.4796 29.5668L11.8992 31Z" fill="#C8002A" stroke="#C8002A"/>
<path d="M53.35 29.0577L53.5872 28.3462L53.2491 28.2335L52.9482 28.4244L53.35 29.0577ZM56.45 25.9577L55.8167 25.5559L55.6258 25.8568L55.7385 26.1949L56.45 25.9577ZM58 30.6077L57.7628 31.3192L59.1859 31.7935L58.7115 30.3705L58 30.6077ZM48 31.3577C50.1143 31.3577 52.0881 30.7465 53.7518 29.691L52.9482 28.4244C51.5177 29.332 49.8214 29.8577 48 29.8577V31.3577ZM37.25 20.6077C37.25 26.5447 42.0629 31.3577 48 31.3577V29.8577C42.8914 29.8577 38.75 25.7163 38.75 20.6077H37.25ZM48 9.85767C42.0629 9.85767 37.25 14.6706 37.25 20.6077H38.75C38.75 15.4991 42.8914 11.3577 48 11.3577V9.85767ZM58.75 20.6077C58.75 14.6706 53.9371 9.85767 48 9.85767V11.3577C53.1086 11.3577 57.25 15.4991 57.25 20.6077H58.75ZM57.0833 26.3595C58.1389 24.6958 58.75 22.722 58.75 20.6077H57.25C57.25 22.429 56.7243 24.1254 55.8167 25.5559L57.0833 26.3595ZM55.7385 26.1949L57.2885 30.8448L58.7115 30.3705L57.1615 25.7205L55.7385 26.1949ZM58.2372 29.8962L53.5872 28.3462L53.1129 29.7692L57.7628 31.3192L58.2372 29.8962Z" fill="black"/>
<path d="M346.198 23.1158L345.713 22.6882L345.219 23.1043L338.983 28.3514C338.495 28.7618 337.75 28.415 337.75 27.7775V11C337.75 10.8619 337.862 10.75 338 10.75H353C353.138 10.75 353.25 10.8619 353.25 11V27.6761C353.25 28.322 352.488 28.6658 352.004 28.2385L346.198 23.1158Z" stroke="black" stroke-width="1.5"/>
</svg>
